/* XPM */
static char *graphic[] = {
/* width height num_colors chars_per_pixel */
"32 32 816 2", 
/* colors */
"   c None",
".  c #AC8C3F",
"X  c #CEB75D",
"o  c #D8C46D",
"O  c #D4B956",
"+  c #BA9C48",
"@  c #8C5D13",
"#  c #E4CD6F",
"$  c #D2BF66",
"%  c #EAE284",
"&  c #F4EF94",
"*  c #E3BC5A",
"=  c #E4CB73",
"-  c #A57E2A",
";  c #D8C15F",
":  c #DEC66A",
">  c #D8C66F",
",  c #E3CC68",
"<  c #CEAB53",
"1  c #A2761C",
"2  c #BA9E4A",
"3  c #DCCE78",
"4  c #B18C3C",
"5  c #9E792E",
"6  c #BBA153",
"7  c #7C4F17",
"8  c #E2D071",
"9  c #C2AC5A",
"0  c #D0B45C",
"q  c #A28440",
"w  c #B18E3E",
"e  c #BCA150",
"r  c #EEE68A",
"t  c #E5DC83",
"y  c #CDB455",
"u  c #E5C160",
"i  c #D4C46C",
"p  c #9A7630",
"a  c #E3C773",
"s  c None",
"d  c #F3E485",
"f  c #D5C775",
"g  c #855D22",
"h  c #EEE88C",
"j  c #E5D16E",
"k  c #F5F393",
"l  c #C6B060",
"z  c None",
"x  c #E8DB7E",
"c  c #CDBB67",
"v  c #CCB259",
"b  c #83581D",
"n  c #AC8E42",
"m  c #DFD177",
"M  c #DEC062",
"N  c #B38B3D",
"B  c #7F5216",
"V  c #906A2D",
"C  c #9C7934",
"Z  c #CAB359",
"A  c #DFBE5B",
"S  c #E3B656",
"D  c None",
"F  c None",
"G  c #C9AF5B",
"H  c #DBB961",
"J  c #F0EB90",
"K  c #C5A954",
"L  c #D6BC5B",
"P  c #D3A94F",
"I  c #D4BA64",
"U  c #F6ED89",
"Y  c #BC9F4D",
"T  c #D8CA74",
"R  c #B79548",
"E  c #DFBA58",
"W  c #D1BF6D",
"Q  c #C6A353",
"!  c #9F7A31",
"~  c #EFE484",
"^  c #BC9C3F",
"/  c #D4C46D",
"(  c #E3D57D",
")  c #CCA851",
"_  c #E3C774",
"`  c #DFB453",
"'  c #B39748",
"]  c #E1C361",
"[  c #C1A751",
"{  c #DFC461",
"}  c #B0944A",
"|  c None",
" . c #E0C05E",
".. c #DEC063",
"X. c #AD872C",
"o. c #AD8639",
"O. c #A47A2E",
"+. c #EDE181",
"@. c #CEB35C",
"#. c #BA9E4C",
"$. c #835A20",
"%. c #F1E183",
"&. c #DFD37A",
"*. c #D4BD5C",
"=. c #ECE58A",
"-. c #DCC365",
";. c #A17F37",
":. c #D5C065",
">. c #BD9F49",
",. c #BCA150",
"<. c #BEA857",
"1. c #CDB457",
"2. c #E7C869",
"3. c #B48534",
"4. c #C1A752",
"5. c #B89B49",
"6. c #C4AF60",
"7. c #B0944B",
"8. c #BCA352",
"9. c #F1ED8E",
"0. c #A8883D",
"q. c #D3BD62",
"w. c #DBBE5B",
"e. c #E9D979",
"r. c #E6C66D",
"t. c #E8C971",
"y. c #C6A54D",
"u. c #C0AB5B",
"i. c #D5B65D",
"p. c #F3EE90",
"a. c #B79641",
"s. c #764811",
"d. c #805011",
"f. c #B89746",
"g. c #EFE889",
"h. c #C5A14F",
"j. c #B59A4D",
"k. c #A68338",
"l. c #DFD37B",
"z. c #E3C666",
"x. c #AB893A",
"c. c #BC9A3F",
"v. c #AB8738",
"b. c #B89948",
"n. c #B89438",
"m. c #E1CF6D",
"M. c #B89B4A",
"N. c #855C1E",
"B. c #C1A551",
"V. c #AB893A",
"C. c #96702C",
"Z. c #B3974A",
"A. c #9C782D",
"S. c #DFB455",
"D. c #B99943",
"F. c #C5A84A",
"G. c #C4A545",
"H. c #E0BF65",
"J. c #E1D881",
"K. c #E4D06A",
"L. c #AD8437",
"P. c #CAB35C",
"I. c #C5AF5C",
"U. c #DFB052",
"Y. c #D7C56C",
"T. c #B89F4E",
"R. c None",
"E. c #BDA34E",
"W. c #DBC05E",
"Q. c #D4AD53",
"!. c #DDCC75",
"~. c #9A7329",
"^. c #F0D877",
"/. c #C3AA57",
"(. c #B28D30",
"). c #F3F093",
"_. c #AE9149",
"`. c #916A2B",
"'. c #EACB69",
"]. c #B99742",
"[. c #D6C370",
"{. c #CCB150",
"}. c #B69A49",
"|. c #C3AC59",
" X c #D9C360",
".X c #AD9042",
"XX c #A6853B",
"oX c #906B28",
"OX c #DDC362",
"+X c #C5A554",
"@X c #D0BE69",
"#X c #B49544",
"$X c #DBC972",
"%X c #D5BF5E",
"&X c #B08F3D",
"*X c #B89D4D",
"=X c #F0E482",
"-X c #D3B854",
";X c #A8883F",
":X c #E5D374",
">X c #C3A856",
",X c #BA993F",
"<X c #ECD06F",
"1X c #A0742A",
"2X c #C4AE56",
"3X c #BB9738",
"4X c #F0D878",
"5X c #A88A41",
"6X c #BAA051",
"7X c #D5BB58",
"8X c #BD9F4C",
"9X c #D4B75A",
"0X c #BB9E4A",
"qX c #CFB654",
"wX c #CCB151",
"eX c #D5BD5D",
"rX c #D0B95D",
"tX c #DAC15D",
"yX c #E3D071",
"uX c #BEA85A",
"iX c #CBBA6A",
"pX c #D0B95A",
"aX c None",
"sX c #CBA74E",
"dX c #CAB15C",
"fX c #BCA355",
"gX c #744610",
"hX c #D4C673",
"jX c #D7C36C",
"kX c #B98B39",
"lX c #E7D077",
"zX c None",
"xX c #C5A850",
"cX c #8D6722",
"vX c #D6C265",
"bX c #E6C967",
"nX c #AE8C3B",
"mX c #C3B05E",
"MX c #7D531B",
"NX c #A47D29",
"BX c #C4A650",
"VX c #C6AD57",
"CX c #AB8639",
"ZX c #BFA250",
"AX c #9B7832",
"SX c #D1B350",
"DX c #BDA350",
"FX c #9B7325",
"GX c #DBCD77",
"HX c #C6AF59",
"JX c #E0BE5B",
"KX c #E6D880",
"LX c #E6BD5D",
"PX c #BB9E4B",
"IX c #A58744",
"UX c #E9DD80",
"YX c #B99234",
"TX c #E6C564",
"RX c #DAB65D",
"EX c #D0B154",
"WX c #DBCF79",
"QX c #906926",
"!X c #BEA34B",
"~X c #F3D774",
"^X c #DFC46F",
"/X c #C9AE54",
"(X c #E2C764",
")X c #C4AA54",
"_X c #D4B156",
"`X c #D3B360",
"'X c #9E792F",
"]X c #E0C864",
"[X c #E2D47B",
"{X c None",
"}X c #B7933A",
"|X c #DCC25D",
" o c #C4AC56",
".o c #EEE584",
"Xo c #F3E984",
"oo c #D0B253",
"Oo c #C6AD58",
"+o c #DDBF61",
"@o c #F3DB78",
"#o c #C29F4A",
"$o c #DDC16C",
"%o c #C2AC61",
"&o c #DCD176",
"*o c #EFD571",
"=o c #CBAB53",
"-o c #C5B161",
";o c #D9C671",
":o c #9C762C",
">o c #AE872C",
",o c #E0BE5C",
"<o c #DAC46A",
"1o c #C6AF5A",
"2o c #BB9E4C",
"3o c #B1964C",
"4o c #E9DD81",
"5o c #C4AA55",
"6o c #C3A74C",
"7o c #E0D37A",
"8o c #DDC45E",
"9o c #D4B95E",
"0o c #E6C767",
"qo c #E4DB83",
"wo c #E7D87C",
"eo c None",
"ro c #BBA04E",
"to c #744612",
"yo c #EADD7C",
"uo c #EDE78C",
"io c #F2EB8C",
"po c #CE9E44",
"ao c #CAAE50",
"so c #CDB860",
"do c #F6F395",
"fo c #DABD59",
"go c #AB8D42",
"ho c #C0A04B",
"jo c #DCB654",
"ko c #EBCF6B",
"lo c #E2BA58",
"zo c #A9883D",
"xo c None",
"co c #9A752F",
"vo c #C2A954",
"bo c #8E6221",
"no c #895911",
"mo c #BEA34D",
"Mo c #E0B858",
"No c #BFA146",
"Bo c #E2C766",
"Vo c #E8C668",
"Co c #DEC966",
"Zo c #C3AE5F",
"Ao c #DEBB5A",
"So c #9E7B33",
"Do c #D2BC61",
"Fo c #D9CC78",
"Go c #DABD5A",
"Ho c #F4EC8F",
"Jo c #B09143",
"Ko c #7E4E12",
"Lo c #C9B25A",
"Po c #D8C36A",
"Io c #AA8435",
"Uo c #B99D4C",
"Yo c #B9983C",
"To c #DFC065",
"Ro c #B4994C",
"Eo c #B79A49",
"Wo c #DED27A",
"Qo c #C1AB5C",
"!o c #D0B857",
"~o c #BDA555",
"^o c #AC8D3E",
"/o c #ECDA7C",
"(o c #B48F32",
")o c #E6DA85",
"_o c #AA8839",
"`o c #D8C25E",
"'o c #BBA050",
"]o c #C3AE60",
"[o c #AD9249",
"{o c #9A6E1B",
"}o c #B18534",
"|o c #80561D",
" O c #906D2F",
".O c #F6DE79",
"XO c #E2CE79",
"oO c #D1B662",
"OO c #CAB362",
"+O c #D2B45B",
"@O c #B69E52",
"#O c #BC9B3B",
"$O c #D9C769",
"%O c #D8B654",
"&O c #A7873D",
"*O c #BC923F",
"=O c #C0A04D",
"-O c #BEA14D",
";O c #A37921",
":O c #EEE789",
">O c #C1AB5D",
",O c #E4D474",
"<O c #C7A846",
"1O c #BEA34F",
"2O c #9A712A",
"3O c #F9EC8D",
"4O c #D4BA56",
"5O c #CBB55F",
"6O c #AA883A",
"7O c #BC993A",
"8O c #D0B35A",
"9O c #AE9043",
"0O c #CFAE50",
"qO c #AF892C",
"wO c #E9E188",
"eO c #D9BF63",
"rO c #D6C26A",
"tO c #A37F35",
"yO c #C0A653",
"uO c #C1A44C",
"iO c #D6B45E",
"pO c #D6BD5E",
"aO c #C4AE5C",
"sO c #DACA73",
"dO c #A88537",
"fO c #C19E47",
"gO c #BA9340",
"hO c #C09A49",
"jO c #E3D67C",
"kO c #AD8A37",
"lO c #E4D475",
"zO c #DFD075",
"xO c #C5A650",
"cO c #BEA350",
"vO c None",
"bO c #E2BC5D",
"nO c #A88739",
"mO c #D2C067",
"MO c #E4CE70",
"NO c #C39944",
"BO c #B09549",
"VO c #AC8F42",
"CO c #C5A342",
"ZO c #A5843B",
"AO c #CBAF5B",
"SO c #C5A24D",
"DO c #B4923D",
"FO c #A87E26",
"GO c #F2D874",
"HO c #BC9846",
"JO c #D8C972",
"KO c #EFE382",
"LO c #865918",
"PO c #A18036",
"IO c #BA9946",
"UO c #8A6021",
"YO c #DCD17B",
"TO c #C0A04F",
"RO c None",
"EO c #B39646",
"WO c #E7C161",
"QO c None",
"!O c #BA9638",
"~O c #CBAE4F",
"^O c None",
"/O c #97732A",
"(O c #C2A44B",
")O c #C8AB51",
"_O c #D5BD61",
"`O c None",
"'O c #EDE07F",
"]O c None",
"[O c #C9B661",
"{O c #F0EA8F",
"}O c #ECD771",
"|O c #C3A953",
" + c #9B752E",
".+ c #E9CC6C",
"X+ c #B9A153",
"o+ c #D4BC5A",
"O+ c #DFBF5C",
"++ c #CA9E47",
"@+ c #C6B363",
"#+ c #C6AE53",
"$+ c #98742E",
"%+ c #D1B95C",
"&+ c #E7D573",
"*+ c None",
"=+ c #BCA04E",
"-+ c #E1BA59",
";+ c #CBB965",
":+ c #DCC66A",
">+ c None",
",+ c #B08E39",
"<+ c #C1A650",
"1+ c #CDBA67",
"2+ c #AD8A39",
"3+ c #E6DB7E",
"4+ c #AA863B",
"5+ c #DEBF62",
"6+ c #F2DC79",
"7+ c #BC9C4B",
"8+ c #EBDE89",
"9+ c #C4A94F",
"0+ c #B18E34",
"q+ c #C7AA4B",
"w+ c #DACE79",
"e+ c #B19344",
"r+ c #C6A64D",
"t+ c #A68236",
"y+ c #DCCA6B",
"u+ c #E1B858",
"i+ c #E8D076",
"p+ c #C2AD5D",
"a+ c None",
"s+ c #E9CE6F",
"d+ c #B38E41",
"f+ c #D5B15B",
"g+ c #B48433",
"h+ c #BCA04F",
"j+ c #C4A353",
"k+ c #D2B863",
"l+ c #D5C166",
"z+ c #E9D676",
"x+ c #C2A758",
"c+ c #BBA458",
"v+ c #C3A551",
"b+ c #C1A651",
"n+ c #E3D16F",
"m+ c #D1BA6A",
"M+ c #9F7B33",
"N+ c #CDBA68",
"B+ c #E1D77F",
"V+ c #DFD078",
"C+ c #F0E37F",
"Z+ c #D2B95C",
"A+ c #C5A94A",
"S+ c #BF9E47",
"D+ c #A57F2E",
"F+ c #CEB553",
"G+ c #C0A657",
"H+ c #C5A855",
"J+ c #ECE48A",
"K+ c #D3B057",
"L+ c #CAB45C",
"P+ c #BF9B47",
"I+ c None",
"U+ c None",
"Y+ c #D9CD73",
"T+ c #B5923B",
"R+ c #E6D26C",
"E+ c #B69947",
"W+ c #D4C36E",
"Q+ c None",
"!+ c #E0C469",
"~+ c #CCAF59",
"^+ c #F2DA79",
"/+ c #F5F295",
"(+ c #F6E887",
")+ c #DAB75B",
"_+ c #BC9A4B",
"`+ c #AA8C42",
"'+ c #DCBE62",
"]+ c None",
"[+ c #D4C570",
"{+ c #A6863B",
"}+ c #A78944",
"|+ c #C4B062",
" @ c #7E4E0F",
".@ c #D5BE59",
"X@ c #9C772D",
"o@ c #E5CA6B",
"O@ c None",
"+@ c #E2D579",
"@@ c #DAB95D",
"#@ c #B0954D",
"$@ c #B5943D",
"%@ c #E6D57B",
"&@ c #EED674",
"*@ c #AC8F46",
"=@ c #EEDE7B",
"-@ c #9A6E21",
";@ c #B49846",
":@ c #DCC266",
">@ c #A47B31",
",@ c #C6AE56",
"<@ c #DFD47D",
"1@ c #A57C21",
"2@ c #E0C363",
"3@ c #E5CE6F",
"4@ c #CFB258",
"5@ c #E0C873",
"6@ c #C8AA48",
"7@ c #CAA853",
"8@ c #E3C163",
"9@ c #CBB968",
"0@ c #F3EB8F",
"q@ c #976815",
"w@ c #B99843",
"e@ c #E4DA7F",
"r@ c #E6C260",
"t@ c #A47A25",
"y@ c #C8B15A",
"u@ c #C8AC4A",
"i@ c #D9C971",
"p@ c #E6DB81",
"a@ c #9C772E",
"s@ c #DBCA73",
"d@ c #906420",
"f@ c #E7D97A",
"g@ c #DAB95E",
"h@ c #AF9245",
"j@ c #DCC86C",
"k@ c None",
"l@ c #8F6319",
"z@ c #D3B955",
"x@ c #AF8C40",
"c@ c #BEA557",
"v@ c #AB8639",
"b@ c #AD8639",
"n@ c #E7CD70",
"m@ c #A0752B",
"M@ c #CCB050",
"N@ c #B9A359",
"B@ c #C5B260",
"V@ c #DBCE77",
"C@ c #BEA759",
"Z@ c #C1A452",
"A@ c #9C752D",
"S@ c #C6B059",
"D@ c #D5BC59",
"F@ c #E6D980",
"G@ c #E4DA80",
"H@ c #C7B362",
"J@ c #C3AD5B",
"K@ c #AB8A3D",
"L@ c #D7BD5B",
"P@ c #E8DA82",
"I@ c #E2C05D",
"U@ c #D8B85D",
"Y@ c #B8973D",
"T@ c #BFA754",
"R@ c #E0CE74",
"E@ c #A4833A",
"W@ c #7D521A",
"Q@ c #B7A056",
"!@ c #986D21",
"~@ c #F1EE92",
"^@ c #D7BF5D",
"/@ c #E8D774",
"(@ c #D6B358",
")@ c #B89E4F",
"_@ c #E6DD84",
"`@ c #DFCD6D",
"'@ c #CCB35F",
"]@ c #D7C66F",
"[@ c #C2A851",
"{@ c #A3751C",
"}@ c #ECD978",
"|@ c #E4D87F",
" # c #E1C063",
".# c #E1C86A",
"X# c None",
"o# c #805317",
"O# c None",
"+# c #E1D071",
"@# c #E4DA81",
"## c #7E5112",
"$# c #BB9A3C",
"%# c #E0CC73",
"&# c #B39340",
"*# c #C3AD5C",
"=# c #E1CA6C",
"-# c #845B20",
";# c #D2A349",
":# c #BCA255",
"># c #CAB863",
",# c #D0BA5C",
"<# c #B49137",
"1# c #A37920",
"2# c #E2BA59",
"3# c #E7D97C",
"4# c #BCA457",
"5# c None",
"6# c #9A7429",
"7# c #F6F293",
"8# c #C6A747",
"9# c #D5C56E",
"0# c #BDA250",
"q# c #C4AD57",
"w# c #D1B250",
"e# c #ECDF7E",
"r# c #E5D477",
"t# c #C5B060",
"y# c #C6A652",
"u# c #C8A84C",
"i# c #C4A752",
"p# c #A47E2B",
"a# c #BA9F52",
"s# c #E2D179",
"d# c #CAAE5B",
"f# c #A27D2F",
"g# c #C5B262",
"h# c #E6CC6B",
"j# c #D9C772",
"k# c #855616",
"l# c #D0B556",
"z# c #BFA554",
"x# c #7B4F18",
"c# c #A58336",
"v# c #BEA44D",
"b# c #DCC15D",
"n# c #EBD26D",
"m# c #B89E51",
"M# c #D6C166",
"N# c #815313",
"B# c #A3761C",
"V# c #DEC25F",
"C# c #F3E884",
"Z# c #E4C161",
"A# c #9E7A31",
"S# c #885C1E",
"D# c #D2C06F",
"F# c #DABC58",
"G# c #E4C968",
"H# c #BFA958",
"J# c #A7863A",
"K# c #CEB558",
"L# c #B9973A",
"P# c #CDB15A",
"I# c #C0A14E",
"U# c #A9822C",
"Y# c #C4AF5A",
"T# c #BE9A45",
"R# c #E3C76C",
"E# c #F1EA91",
"W# c #9D7527",
"Q# c #D3BA65",
"!# c None",
"~# c #B1974E",
"^# c #A28039",
"/# c #BAA357",
"(# c #D7CA75",
")# c #C0AA60",
"_# c #AE8A30",
"`# c #E7D177",
"'# c #C0A550",
"]# c #E3CB70",
"[# c #D4BA60",
"{# c #D4BB5B",
"}# c #9F782B",
"|# c #B08B32",
" $ c #D9B054",
".$ c None",
"X$ c #DBBF62",
"o$ c #A3782D",
"O$ c #BE9844",
"+$ c #B38736",
"@$ c #82581F",
"#$ c #D8B754",
"$$ c #D3B864",
"%$ c #C0A14D",
"&$ c #C9AE4B",
"*$ c #E7D57B",
"=$ c #DBC164",
"-$ c #906721",
";$ c #9C772F",
":$ c #B49A4D",
">$ c #F1E582",
",$ c #E0B758",
"<$ c #CBB45D",
"1$ c #CDBB64",
"2$ c #DFC96D",
"3$ c #EEE284",
"4$ c #D6BF66",
"5$ c #CAB866",
"6$ c #BE9F3F",
"7$ c #9C7931",
"8$ c #F5E786",
"9$ c #A98B41",
"0$ c #C0A041",
"q$ c #BBA151",
"w$ c None",
"e$ c #C3AF61",
"r$ c #CEB55A",
"t$ c #DAC461",
"y$ c #B99C4C",
"u$ c #EFDC7A",
"i$ c #E4C365",
"p$ c #BC9E47",
"a$ c #EAE081",
"s$ c #E2C465",
"d$ c #B8A055",
"f$ c #DACB73",
"g$ c #EBE38A",
"h$ c #F1DD7C",
"j$ c #C3A64E",
"k$ c #B99E4E",
"l$ c #F8F08A",
"z$ c #D2B75E",
"x$ c None",
"c$ c #B59847",
"v$ c None",
"b$ c #CDB361",
"n$ c #AF8629",
"m$ c #C7A947",
"M$ c None",
"N$ c #BE9C49",
"B$ c #C1A149",
"V$ c #BA9642",
"C$ c #B78838",
"Z$ c #BFA759",
"A$ c #C2AC59",
"S$ c #BC9744",
"D$ c #D6BC59",
"F$ c #F1E180",
"G$ c #E4D777",
"H$ c None",
"J$ c #C6A74B",
"K$ c #DECA69",
"L$ c #C4AD5B",
"P$ c #E1D479",
"I$ c #B78A3A",
"U$ c #AE8B41",
"Y$ c None",
"T$ c #E3CB76",
"R$ c #E0CB6B",
"E$ c #EDDA84",
"W$ c #B09246",
"Q$ c #986A18",
"!$ c #E0BD5F",
"~$ c #C7A44F",
/* pixels */
"                  D s x$oo!oZ+eX%XpO{#l#x$s D                   ",
"              U+zXp$(O9+/Xr$Dol+M#_O9XEX0Ou#S+zXU+              ",
"            `O2+&#M.+ P.|Ososo<$<$v r+B$)Oj$>.a.kOaX            ",
"        a+w$f#x.#X o#XE+1OPX0X'#b+-Ohoy.].[  o5.nXf#w$a+        ",
"      a+F A@k._o2ok$J@[+l.Uot+,.y$t+%$^.0o=ob.~o6 0.A@F a+      ",
"      ]O +/.K@. fX4#C.&O<@_@9#L$I.s@d 4XN 2Oi#cO7.^#<.co]O      ",
"    {XS#W$aO*#>OFoc+B UOT J J+g#-o0@3On@boo#K lOA$H#u._.N.{X    ",
"  H$gXE@7 s.6.@#N@f /#]oB+t d$$.|oc@%.^+K+7@=#z#a$mXs.x#q toz   ",
"  5#oXOob W@@+iXIXQ@}+~#WX#@V g -#`.R s+hOd+v+;X1$B@MX@$%o Ok@  ",
"Q+Ko5o'X;$6XV@*@d$[o|+(#:$QXN# @ @d.d@S$.+i.f.0#VOY+X+AXC )###Q+",
"vOFX%+}#dO5O&.Z.@+hXJ.*X6#l@W#D.!@no@ -@fO6+# X ;@&o[OJ#! D#A..$",
"O#T+,XNX,+,@HX8.5$YOE.p#{o- +#U ,ODOQ$q@t@J$u$q.v#2Xq#&XD+Y EoO#",
"B#L@n.<#6oZ moq#[+[@_#1@1 1#Y@zO7#p.$ U#{@>oaoy+#+!XS@<+$@w@[.;O",
"(oD$0$y K#:.UXp@Z Yo(.qOX.2 0+|#y@uo~@|.FOn$L#,#.o% mOL+L+uO;o}X",
"G.7Xq+K$yo~ 3$vXA+6$#O7O$#e@G@^ !ONoLo/ c.YX3XF.$Oioh qof$/XjXxX",
"qXR+{.m.=XKO`@*.F+&$6@m$u@% ).wX<O8#3+).~OCOCOM@pX+@{OE#V+1.)orX",
"tXK.t$n+'Oe#Co X`o.@4Oz@D@g./+; -XO :Odo^@SXw#L o+y+wOg$7oj@P@:+",
"8o, W./@>$+.f@j ]X|Xw.fob#F$(+{ F#Go}@8$V##$%OOXR$P$=.& F@-.*$: ",
" .}O(X&+e.X$:@r#G#] O+A JXGO.OI@,oko*o'.E joAoBo8 =$eO|@KX]#8+2@",
"lon#bXh#s$u+,$R@wo2.u * -+=@Xo+oC+l$C#z.` 2#TXz+yXMou+!+`#i+E$bO",
"M$r@Z#!$3@8@To( 3 %@VoLXS.3#9.4$k x )+U.S WO&@:XG$.. #%#H.r.t.M$",
"*+Q.h#(@2$<o> Q#j#w+s#RXP ) ;od#I ++po;# $<Xh$MO[#Y.rO$XiOXOf+*+",
"!#C$9oSOP#~+TO_+OOW YO!.h.*O+$}o3.g+kXNOi$@o.#z$N$=OAO'@+Xm+I$!#",
"  >+o.BXv@h+]@a#:#t#H@B+W+x@>@m@1Xo$L.g@~XU@+OB.=+i 'o4+x+U$>+  ",
"  ROk#8XvoM+;+C@3oe$} 5$c 1+`+p $+zo@.'+@@HO8Oc$T@>#SoZ$m#LOxo  ",
"    QO-$}.A#;.Zo@O5X&On ' @XGX9$ZOsOPoP+gO4 w #.Y#PO7$j.cXQO    ",
"      eo~.1o9OgouXBORoh@:oe+r l.WoHob.O.O$#oIO)X^o.X9 /Oeo      ",
"      ^OX#a@)@{+XXp+9@q$EOc#i@roDXm v.T#sXM 4@_onOT.X@X#^O      ",
"        a+v$5 G+QotOJoL$JODXyO6OV./.xOo@_XV$IoVX4.5 v$a+        ",
"            | CXe l N+>X7+ZXZ@G dXH+y#~$< 5+0 I#b@|             ",
"              !#]+j+b$k+o [XjOoO$$4o/oR#H `XQ ]+!#              ",
"                  O@Y$R.$o5@T$a _ lX= ^XI+Y$O@                  "
};
