/* XPM */
static char *graphic[] = {
/* width height num_colors chars_per_pixel */
"16 16 222 2", 
/* colors */
"   c None",
".  c #C4AF5D",
"X  c #A88737",
"o  c #BC9B48",
"O  c #E1D076",
"+  c None",
"@  c #E0C768",
"#  c #DBC368",
"$  c #9E7727",
"%  c #BEA250",
"&  c #AA8638",
"*  c None",
"=  c #DBC369",
"-  c #C3A04B",
";  c #B9A052",
":  c #B39546",
">  c #AF8A2F",
",  c #9A7833",
"<  c #C1A54F",
"1  c #DECC6D",
"2  c #CEAF58",
"3  c #C4AF5F",
"4  c None",
"5  c #A78843",
"6  c #E1CD6A",
"7  c #D5C068",
"8  c #9C7B37",
"9  c #C4AF60",
"0  c #B5984B",
"q  c #B89D4B",
"w  c #AD8436",
"e  c #B59A4D",
"r  c #B18C3F",
"t  c #CCB45D",
"y  c #AF8F41",
"u  c #C0A356",
"i  c #916B29",
"p  c #CCAE58",
"a  c #BAA04F",
"s  c #BD9F4A",
"d  c #D6C571",
"f  c #D2B862",
"g  c #C4A64E",
"h  c #E1CD6C",
"j  c #DDCC75",
"k  c None",
"l  c None",
"z  c #BF9C49",
"x  c #987734",
"c  c #DAC46C",
"v  c #C3A452",
"b  c #D9BD5B",
"n  c #CDB65B",
"m  c #B3994D",
"M  c #A88538",
"N  c #AF8F43",
"B  c #E8CC6A",
"V  c #C5AB5A",
"C  c #D4BB61",
"Z  c #C1A245",
"A  c #C8AD4C",
"S  c #C0AB5E",
"D  c #C2A750",
"F  c #BEA659",
"G  c #DBCF79",
"H  c #E6CD6B",
"J  c #E2BF5D",
"K  c #C1A554",
"L  c #C4AA54",
"P  c #C1A756",
"I  c #ECDE7D",
"U  c #AD8E43",
"Y  c #B29140",
"T  c #B99948",
"R  c #D7C05F",
"E  c #C2A241",
"W  c #916B2D",
"Q  c #9B6F20",
"!  c None",
"~  c #E1C367",
"^  c #C3A443",
"/  c #E8D675",
"(  c #E0BA59",
")  c #DEC26B",
"_  c #E8D272",
"`  c #DFD072",
"'  c #DEBD65",
"]  c None",
"[  c #DAC66D",
"{  c #B69C4F",
"}  c #DFC66A",
"|  c #C6A84A",
" . c #EBE288",
".. c #E1C76C",
"X. c #C4B05C",
"o. c #AE8930",
"O. c #CBB55E",
"+. c #E8CE75",
"@. c #BEA550",
"#. c #CFBD67",
"$. c #A9893B",
"%. c #D6C269",
"&. c #C3B062",
"*. c #EBD572",
"=. c #B18F3D",
"-. c #BEA34F",
";. c #EBD16F",
":. c #B49B4F",
">. c None",
",. c #E0C86D",
"<. c #D2B556",
"1. c #D4C168",
"2. c #E1D378",
"3. c #C4AE5C",
"4. c None",
"5. c None",
"6. c #D6B957",
"7. c #B99F50",
"8. c #BA9D49",
"9. c #885D1D",
"0. c #D3BE60",
"q. c #C0A452",
"w. c #BC9E4B",
"e. c #C1A24D",
"r. c #E8D276",
"t. c #C5AE58",
"y. c #DEBA5B",
"u. c #DBCC71",
"i. c #AF9040",
"p. c #C4A94E",
"a. c #B39647",
"s. c #EDDE7E",
"d. c #A78942",
"f. c #DBC269",
"g. c #E2CF75",
"h. c #C8A54D",
"j. c #C3A954",
"k. c #E3C766",
"l. c #BFA14D",
"z. c #DEC862",
"x. c #AD8A39",
"c. c #BBA458",
"v. c #BA9F4F",
"b. c #B59B4E",
"n. c #DEC367",
"m. c #D7BB57",
"M. c #CBB967",
"N. c #C3A552",
"B. c None",
"V. c #C5AE5B",
"C. c #C3A754",
"Z. c #A48235",
"A. c #CEB559",
"S. c #E5C964",
"D. c #E3C768",
"F. c #A38039",
"G. c #E6D178",
"H. c #EAD471",
"J. c #D9BA62",
"K. c #DAB95E",
"L. c #C4A84F",
"P. c #A8883B",
"I. c #C7A64B",
"U. c #AF9143",
"Y. c None",
"T. c #DEC770",
"R. c #AB883D",
"E. c #A68538",
"W. c #D6C366",
"Q. c #DFBF61",
"!. c #CDAB53",
"~. c #9D7A35",
"^. c #B3913C",
"/. c #D6BF63",
"(. c #895F20",
"). c #C4AB55",
"_. c #CFAE57",
"`. c #C6A747",
"'. c #C6AC57",
"]. c #C9AA4F",
"[. c #D4B955",
"{. c #D6C569",
"}. c #E1C86B",
"|. c #BB9746",
" X c None",
".X c #CCB254",
"XX c #A8812E",
"oX c #C5A954",
"OX c #C5AE5F",
"+X c #B39A51",
"@X c #E4D16F",
"#X c #AE862C",
"$X c #BC9F4A",
"%X c #BB9D4C",
"&X c #D3C06A",
"*X c #D5BE61",
"=X c #D3C26C",
"-X c #C7AE55",
";X c #DDCA6C",
":X c #E4BF60",
">X c #B69B4E",
",X c #EADC7C",
"<X c #AC8032",
"1X c #DAC25E",
"2X c None",
"3X c #AE8D3F",
"4X c #DAC36B",
"5X c #C5A54D",
"6X c #C4A446",
"7X c #E4C768",
"8X c #C4AB58",
"9X c #E9E086",
"0X c #B09245",
"qX c #DCC26F",
"wX c #D8BD5A",
"eX c #E4CB6C",
"rX c #D7AD52",
"tX c #C2AA57",
"yX c #C7B059",
"uX c #D0B45B",
"iX c None",
"pX c #C59D48",
/* pixels */
"      k  XL.A.C *X<.].Y.k       ",
"    B.X T -.j.).L 5Xg $Xx.B.    ",
"  l $.3X7.e =XtX8X} z % 0XP.l   ",
"+ i , 3 &.d.G c.F r.r t . x W + ",
">.R.~.9 +XS m (.9.|._.%XX.8 5 4.",
"XX^.8.V.M.@.$ D =.Q I./.t.q : & ",
"^ Z n 1.-X> o.p.2.yX#X.X{.O.< oX",
"[.R ,X1 A E 0.W.| u.6X`.` 9X%.7 ",
"z.6 I h 1Xm.@X/ wXs.b 6.;X .O g.",
"S.H D.}.eXJ B H.*.;.( k.@ ..G.+.",
"y.Q.n.4Xj ~ K.[ = rX:X_ # f.) ' ",
"4 e.N.V OXd v w <XpX7XuX'.K u ! ",
"5.Z.y ; :.{ 3.>X0 p - w.a U F.5.",
"  l M N b.7.a.#.&Xo h.s i.E.l   ",
"    * U.v.P 8Xq.C.2 !.l.Y *     ",
"      ] iXf c qXT.,.J.2X]       "
};
